HIERARCHY
ROOT Hips
{
	OFFSET 0.000000 83.214638 0.000000
	CHANNELS 6 Xposition Yposition Zposition Xrotation Yrotation Zrotation
	JOINT Pelvis
	{
		OFFSET 0.000000 0.000000 0.000000
		CHANNELS 3 Xrotation Yrotation Zrotation
		JOINT LeftUpLeg
		{
			OFFSET 8.479700 -4.795502 -0.379100
			CHANNELS 3 Xrotation Yrotation Zrotation
			JOINT LeftLeg
			{
				OFFSET 0.024144 -32.555107 0.112900
				CHANNELS 3 Xrotation Yrotation Zrotation
				JOINT LeftFoot
				{
					OFFSET -0.024144 -32.638630 -3.012600
					CHANNELS 3 Xrotation Yrotation Zrotation
					JOINT LeftToeBase
					{
						OFFSET 0.970200 -13.225400 11.864200
						CHANNELS 3 Xrotation Yrotation Zrotation
						End Site
						{
							OFFSET 0.000000 12.319262 0.000000
						}
					}
					JOINT LFootTongue
					{
						OFFSET 1.142400 -1.059800 6.665200
						CHANNELS 3 Xrotation Yrotation Zrotation
						End Site
						{
							OFFSET 0.000000 12.319262 0.000000
						}
					}
				}
				JOINT LeftPantLeg
				{
					OFFSET 0.918482 -16.533964 -2.284700
					CHANNELS 3 Xrotation Yrotation Zrotation
					End Site
					{
						OFFSET 0.350399 24.744368 0.000000
					}
				}
			}
		}
		JOINT RightUpLeg
		{
			OFFSET -8.479700 -4.795502 -0.379100
			CHANNELS 3 Xrotation Yrotation Zrotation
			JOINT RightLeg
			{
				OFFSET -0.023144 -32.555092 0.112900
				CHANNELS 3 Xrotation Yrotation Zrotation
				JOINT RightFoot
				{
					OFFSET 0.023144 -32.638641 -3.012700
					CHANNELS 3 Xrotation Yrotation Zrotation
					JOINT RightToeBase
					{
						OFFSET -0.970200 -13.225400 11.864200
						CHANNELS 3 Xrotation Yrotation Zrotation
						End Site
						{
							OFFSET 0.000000 12.319244 0.000000
						}
					}
					JOINT RFootTongue
					{
						OFFSET -1.142200 -1.059800 6.665200
						CHANNELS 3 Xrotation Yrotation Zrotation
						End Site
						{
							OFFSET 0.000000 12.319243 0.000000
						}
					}
				}
				JOINT RightPantLeg
				{
					OFFSET -0.919482 -16.533978 -2.284800
					CHANNELS 3 Xrotation Yrotation Zrotation
					End Site
					{
						OFFSET -0.350400 24.744419 0.000000
					}
				}
			}
		}
	}
	JOINT Spine
	{
		OFFSET 0.000000 7.722000 1.166200
		CHANNELS 3 Xrotation Yrotation Zrotation
		JOINT Spine1
		{
			OFFSET 0.000000 12.024101 0.248800
			CHANNELS 3 Xrotation Yrotation Zrotation
			JOINT Spine2
			{
				OFFSET 0.000000 11.502998 -0.491200
				CHANNELS 3 Xrotation Yrotation Zrotation
				JOINT Neck
				{
					OFFSET 0.000000 18.430702 -3.123100
					CHANNELS 3 Xrotation Yrotation Zrotation
					JOINT Head
					{
						OFFSET 0.000000 9.051102 1.034000
						CHANNELS 3 Xrotation Yrotation Zrotation
						JOINT HairB
						{
							OFFSET 0.208400 24.786102 24.822300
							CHANNELS 3 Xrotation Yrotation Zrotation
							End Site
							{
								OFFSET 0.000000 32.263779 0.000000
							}
						}
						JOINT HairA
						{
							OFFSET -7.081100 24.428299 23.196600
							CHANNELS 3 Xrotation Yrotation Zrotation
							End Site
							{
								OFFSET 0.000000 32.263779 0.000000
							}
						}
						JOINT Hat
						{
							OFFSET 16.728800 15.048294 -15.439601
							CHANNELS 3 Xrotation Yrotation Zrotation
							End Site
							{
								OFFSET 0.000000 32.263779 0.000000
							}
						}
					}
				}
				JOINT LeftShoulder
				{
					OFFSET 6.197800 13.665199 -4.064700
					CHANNELS 3 Xrotation Yrotation Zrotation
					JOINT LeftArm
					{
						OFFSET 7.778100 -0.187103 -1.709300
						CHANNELS 3 Xrotation Yrotation Zrotation
						JOINT LeftForeArm
						{
							OFFSET 22.049376 0.000000 0.000000
							CHANNELS 3 Xrotation Yrotation Zrotation
							JOINT LeftHand
							{
								OFFSET 23.009392 0.000000 0.000000
								CHANNELS 3 Xrotation Yrotation Zrotation
								JOINT LeftHandThumb1
								{
									OFFSET 3.507191 -2.063065 3.133727
									CHANNELS 3 Xrotation Yrotation Zrotation
									JOINT LeftHandThumb2
									{
										OFFSET 3.101337 -1.790558 1.790558
										CHANNELS 3 Xrotation Yrotation Zrotation
										JOINT LeftHandThumb3
										{
											OFFSET 3.058640 -1.765907 1.765906
											CHANNELS 3 Xrotation Yrotation Zrotation
											End Site
											{
												OFFSET -0.415260 3.926476 -0.049563
											}
										}
									}
								}
								JOINT LeftHandIndex1
								{
									OFFSET 11.334419 -0.901459 3.706815
									CHANNELS 3 Xrotation Yrotation Zrotation
									JOINT LeftHandIndex2
									{
										OFFSET 3.283112 0.000000 0.000000
										CHANNELS 3 Xrotation Yrotation Zrotation
										JOINT LeftHandIndex3
										{
											OFFSET 3.323853 0.000000 0.000000
											CHANNELS 3 Xrotation Yrotation Zrotation
											End Site
											{
												OFFSET -1.135597 3.097809 0.402452
											}
										}
									}
								}
								JOINT LeftHandMiddle1
								{
									OFFSET 11.335861 0.000000 0.000000
									CHANNELS 3 Xrotation Yrotation Zrotation
									JOINT LeftHandMiddle2
									{
										OFFSET 3.410492 0.000000 0.000000
										CHANNELS 3 Xrotation Yrotation Zrotation
										JOINT LeftHandMiddle3
										{
											OFFSET 3.312172 0.000000 0.000000
											CHANNELS 3 Xrotation Yrotation Zrotation
											End Site
											{
												OFFSET -1.150200 3.080154 0.400270
											}
										}
									}
								}
								JOINT LeftHandRing1
								{
									OFFSET 11.514786 -0.013176 -3.003090
									CHANNELS 3 Xrotation Yrotation Zrotation
									JOINT LeftHandRing2
									{
										OFFSET 3.053307 0.000000 0.000000
										CHANNELS 3 Xrotation Yrotation Zrotation
										JOINT LeftHandRing3
										{
											OFFSET 3.295807 0.000000 0.000000
											CHANNELS 3 Xrotation Yrotation Zrotation
											End Site
											{
												OFFSET -1.281006 3.013344 0.375733
											}
										}
									}
								}
								JOINT LeftHandPinky1
								{
									OFFSET 10.518692 -0.960396 -5.730441
									CHANNELS 3 Xrotation Yrotation Zrotation
									JOINT LeftHandPinky2
									{
										OFFSET 2.861649 0.000000 0.000000
										CHANNELS 3 Xrotation Yrotation Zrotation
										JOINT LeftHandPinky3
										{
											OFFSET 2.863380 0.000000 0.000000
											CHANNELS 3 Xrotation Yrotation Zrotation
											End Site
											{
												OFFSET -0.843597 2.711159 0.369971
											}
										}
									}
								}
							}
							JOINT LSleeve
							{
								OFFSET 6.676277 -0.344902 -1.011730
								CHANNELS 3 Xrotation Yrotation Zrotation
								End Site
								{
									OFFSET 0.000000 14.885353 0.000000
								}
							}
						}
					}
				}
				JOINT RightShoulder
				{
					OFFSET -6.197800 13.665199 -4.064700
					CHANNELS 3 Xrotation Yrotation Zrotation
					JOINT RightArm
					{
						OFFSET -7.778100 -0.187103 -1.709300
						CHANNELS 3 Xrotation Yrotation Zrotation
						JOINT RightForeArm
						{
							OFFSET -22.049376 0.000000 0.000000
							CHANNELS 3 Xrotation Yrotation Zrotation
							JOINT RightHand
							{
								OFFSET -23.009392 0.000000 0.000000
								CHANNELS 3 Xrotation Yrotation Zrotation
								JOINT RightHandThumb1
								{
									OFFSET -3.507191 -2.063065 3.133727
									CHANNELS 3 Xrotation Yrotation Zrotation
									JOINT RightHandThumb2
									{
										OFFSET -3.101337 -1.790558 1.790558
										CHANNELS 3 Xrotation Yrotation Zrotation
										JOINT RightHandThumb3
										{
											OFFSET -3.058640 -1.765907 1.765906
											CHANNELS 3 Xrotation Yrotation Zrotation
											End Site
											{
												OFFSET 0.415260 3.926476 -0.049563
											}
										}
									}
								}
								JOINT RightHandIndex1
								{
									OFFSET -11.334419 -0.901459 3.706815
									CHANNELS 3 Xrotation Yrotation Zrotation
									JOINT RightHandIndex2
									{
										OFFSET -3.283112 0.000000 0.000000
										CHANNELS 3 Xrotation Yrotation Zrotation
										JOINT RightHandIndex3
										{
											OFFSET -3.323853 0.000000 0.000000
											CHANNELS 3 Xrotation Yrotation Zrotation
											End Site
											{
												OFFSET 1.135597 3.097809 0.402452
											}
										}
									}
								}
								JOINT RightHandMiddle1
								{
									OFFSET -11.335861 0.000000 0.000000
									CHANNELS 3 Xrotation Yrotation Zrotation
									JOINT RightHandMiddle2
									{
										OFFSET -3.410492 0.000000 0.000000
										CHANNELS 3 Xrotation Yrotation Zrotation
										JOINT RightHandMiddle3
										{
											OFFSET -3.312172 0.000000 0.000000
											CHANNELS 3 Xrotation Yrotation Zrotation
											End Site
											{
												OFFSET 1.150200 3.080154 0.400270
											}
										}
									}
								}
								JOINT RightHandRing1
								{
									OFFSET -11.514786 -0.013176 -3.003090
									CHANNELS 3 Xrotation Yrotation Zrotation
									JOINT RightHandRing2
									{
										OFFSET -3.053307 0.000000 0.000000
										CHANNELS 3 Xrotation Yrotation Zrotation
										JOINT RightHandRing3
										{
											OFFSET -3.295807 0.000000 0.000000
											CHANNELS 3 Xrotation Yrotation Zrotation
											End Site
											{
												OFFSET 1.281006 3.013344 0.375733
											}
										}
									}
								}
								JOINT RightHandPinky1
								{
									OFFSET -10.518692 -0.960396 -5.730441
									CHANNELS 3 Xrotation Yrotation Zrotation
									JOINT RightHandPinky2
									{
										OFFSET -2.861649 0.000000 0.000000
										CHANNELS 3 Xrotation Yrotation Zrotation
										JOINT RightHandPinky3
										{
											OFFSET -2.863380 0.000000 0.000000
											CHANNELS 3 Xrotation Yrotation Zrotation
											End Site
											{
												OFFSET 0.843597 2.711159 0.369971
											}
										}
									}
								}
							}
							JOINT RSleeve
							{
								OFFSET -6.676277 -0.344902 -1.011730
								CHANNELS 3 Xrotation Yrotation Zrotation
								End Site
								{
									OFFSET 0.000000 14.885353 0.000000
								}
							}
						}
					}
				}
				JOINT Backpack
				{
					OFFSET 0.000000 -2.471497 36.677502
					CHANNELS 3 Xrotation Yrotation Zrotation
					End Site
					{
						OFFSET 0.000000 20.427315 0.000000
					}
				}
				JOINT Hood
				{
					OFFSET 0.000000 18.754097 -10.431000
					CHANNELS 3 Xrotation Yrotation Zrotation
					JOINT Hood1
					{
						OFFSET 0.000000 -5.011002 -7.685901
						CHANNELS 3 Xrotation Yrotation Zrotation
						End Site
						{
							OFFSET 0.000000 9.175140 0.000000
						}
					}
				}
				JOINT LHoodieString
				{
					OFFSET 5.250500 16.397697 3.089900
					CHANNELS 3 Xrotation Yrotation Zrotation
					JOINT LHoodieString1
					{
						OFFSET 0.257700 -6.364304 3.694600
						CHANNELS 3 Xrotation Yrotation Zrotation
						JOINT LHoodieString2
						{
							OFFSET 0.000000 -9.643799 2.679100
							CHANNELS 3 Xrotation Yrotation Zrotation
							End Site
							{
								OFFSET 0.000000 10.009018 0.000000
							}
						}
					}
				}
				JOINT RHoodieString
				{
					OFFSET -5.250500 16.397697 3.089900
					CHANNELS 3 Xrotation Yrotation Zrotation
					JOINT RHoodieString1
					{
						OFFSET -0.257700 -6.364304 3.694600
						CHANNELS 3 Xrotation Yrotation Zrotation
						JOINT RHoodieString2
						{
							OFFSET 0.000000 -9.643799 2.679100
							CHANNELS 3 Xrotation Yrotation Zrotation
							End Site
							{
								OFFSET 0.000000 10.009018 0.000000
							}
						}
					}
				}
			}
			JOINT LBackpack_Strap
			{
				OFFSET 15.223200 -7.719803 -6.610900
				CHANNELS 3 Xrotation Yrotation Zrotation
				End Site
				{
					OFFSET 0.000000 16.040596 0.000000
				}
			}
			JOINT RBackpack_Strap
			{
				OFFSET -15.223000 -7.719803 -6.610900
				CHANNELS 3 Xrotation Yrotation Zrotation
				End Site
				{
					OFFSET 0.000000 16.040596 0.000000
				}
			}
		}
	}
	JOINT BoyFacialAnim_Joint
	{
		OFFSET 1.000000 -82.208099 -1.550900
		CHANNELS 3 Xrotation Yrotation Zrotation
		End Site
		{
			OFFSET 0.000000 30.012791 0.000000
		}
	}
}
MOTION
Frames: 4
Frame Time: 0.033333
-0.488151 84.657295 -0.535532 -5.782219 39.730220 -0.413103 0.000001 -0.000001 -0.000000 -21.717736 10.367931 13.390045 22.137664 3.113311 0.263824 29.328832 -2.119390 -3.147929 -0.000001 0.000002 -0.000001 -0.000001 0.000002 -0.000002 -0.000000 -0.000003 -0.000000 -6.759412 6.768686 9.714456 21.178986 -3.125003 -0.391105 15.421298 -3.041595 -2.159694 -0.000000 0.000001 -0.000001 -0.000000 0.000001 -0.000001 -0.000000 0.000001 -0.000000 3.699068 2.292612 1.795200 -3.610318 1.871749 2.561085 -3.627328 1.919422 2.477132 6.599799 -17.958234 0.169965 1.596043 -17.550789 -1.363973 -0.000000 0.000001 -0.000000 -0.000000 0.000001 -0.000000 -0.000000 0.000001 -0.000000 3.723453 -3.486853 -0.633228 5.585045 -1.792070 -81.273036 -0.390834 -19.629972 -0.131341 -2.733096 2.123817 8.618094 10.756255 -0.276896 15.889013 -0.891377 26.406625 -5.959735 0.000001 -0.000002 0.000004 1.188007 0.648072 -5.020551 -1.788684 1.904010 -16.719642 -0.000002 -0.000000 -0.000000 -1.911070 4.428866 -9.347815 -0.014838 4.070538 -23.701427 0.000000 -0.000001 -0.000002 -3.675043 10.867610 -6.834809 2.991060 3.454716 -29.218590 -0.000002 0.000001 -0.000002 -4.035549 12.929874 -17.157898 8.436447 2.588198 -31.029799 -0.000000 0.000001 -0.000002 0.000001 -0.000001 0.000003 -0.151796 4.010099 0.286023 7.655163 7.116941 75.697593 -0.576579 18.419277 0.182447 -2.649704 -1.757326 7.469704 15.788756 -2.800657 -17.233891 -2.075410 -31.105966 7.336168 -0.000001 -0.000001 0.000001 2.370637 -3.625962 8.332595 -2.166854 -2.424716 18.528925 -0.000001 0.000000 0.000002 -1.983623 -5.674546 13.528875 0.271149 -5.045433 26.883964 0.000003 0.000000 0.000001 -4.968295 -10.103121 10.695064 4.017509 -4.043354 33.181995 -0.000002 -0.000000 0.000004 -6.479821 -11.318852 23.223605 10.704556 -2.604948 34.787649 0.000001 -0.000002 0.000002 0.000002 -0.000000 -0.000000 -0.000000 -0.000001 -0.000000 -0.000000 -0.000001 -0.000000 -0.000000 -0.000001 -0.000000 -0.000000 -0.000001 -0.000000 -0.000000 -0.000001 0.000000 0.000000 0.000000 0.000000 -0.000000 -0.000001 -0.000000 -0.000000 -0.000001 0.000000 0.000000 0.000000 0.000000 -0.000000 0.000002 -0.000000 -0.000000 0.000002 -0.000000 0.000001 -0.000001 -0.000000 
-0.450046 84.647202 -0.506268 -5.787060 39.750970 -0.447080 -0.000000 0.000001 0.000001 -21.774496 10.364122 13.441414 22.309741 3.074664 0.254418 29.195685 -2.102011 -3.147768 -0.000000 -0.000001 0.000001 -0.000000 -0.000001 0.000001 0.000000 -0.000000 0.000000 -6.737342 6.805922 9.770615 21.192001 -3.167307 -0.419590 15.373222 -3.043096 -2.131717 0.000002 -0.000001 -0.000000 0.000002 -0.000001 -0.000000 -0.000002 -0.000005 0.000000 3.641716 2.278827 1.757130 -3.602546 1.873763 2.565940 -3.618911 1.920392 2.483675 6.666624 -18.023148 0.254022 1.637276 -17.618840 -1.312393 0.000000 -0.000002 0.000000 0.000000 -0.000002 0.000000 0.000000 -0.000002 0.000000 3.723081 -3.496511 -0.632651 5.636981 -1.733593 -81.255776 -0.486582 -19.646443 -0.152727 -2.742044 2.113286 8.548410 10.756264 -0.276898 15.889021 -0.891650 26.403005 -5.961124 -0.000002 -0.000002 -0.000001 1.188026 0.647943 -5.016928 -1.788701 1.903870 -16.716033 0.000001 -0.000000 -0.000004 -1.911130 4.428730 -9.344168 -0.015056 4.070464 -23.697741 -0.000000 0.000000 0.000000 -3.675013 10.867454 -6.831181 2.991104 3.454549 -29.214963 -0.000003 -0.000001 -0.000002 -4.035750 12.929755 -17.154252 8.436349 2.588085 -31.026138 -0.000003 0.000001 -0.000002 0.000002 0.000002 0.000000 -0.157197 3.953153 0.337602 7.643537 7.081858 75.678462 -0.529127 18.408325 0.159383 -2.650828 -1.764808 7.489072 15.793035 -2.810839 -17.233455 -2.073863 -31.116238 7.333177 0.000003 0.000001 0.000000 2.370610 -3.626347 8.343761 -2.166811 -2.425072 18.540130 0.000000 -0.000001 0.000005 -1.983410 -5.674689 13.558085 0.272383 -5.045696 26.913247 0.000000 0.000000 -0.000000 -4.968573 -10.103720 10.724165 4.017438 -4.044608 33.211221 0.000003 0.000000 0.000006 -6.478469 -11.319445 23.252978 10.705337 -2.605784 34.817033 -0.000003 -0.000001 0.000003 -0.000000 -0.000001 -0.000001 0.000000 -0.000001 -0.000000 0.000000 -0.000001 -0.000000 0.000000 -0.000001 -0.000000 0.000000 -0.000001 -0.000000 0.000000 -0.000001 -0.000000 0.000000 0.000000 -0.000000 0.000000 -0.000001 -0.000000 0.000000 -0.000001 -0.000000 0.000000 0.000000 -0.000000 -0.000000 0.000003 0.000000 -0.000000 0.000003 0.000000 -0.000000 0.000001 0.000001 
-0.419642 84.617676 -0.479110 -5.759994 39.862801 -0.529007 0.000000 -0.000002 -0.000000 -21.953650 10.286560 13.515966 22.615112 3.000862 0.254277 29.017854 -2.071937 -3.160648 0.000000 -0.000001 -0.000000 0.000000 -0.000001 0.000000 -0.000000 -0.000001 -0.000000 -6.787520 6.772734 9.854792 21.308906 -3.249377 -0.433366 15.263253 -3.041482 -2.114159 0.000001 0.000002 -0.000001 0.000001 0.000002 -0.000001 -0.000001 -0.000006 0.000001 3.640791 2.248695 1.737289 -3.636552 1.865226 2.564545 -3.651874 1.908398 2.483165 6.687606 -18.090345 0.238059 1.719822 -17.729629 -1.210690 -0.000000 0.000000 -0.000000 -0.000000 0.000000 -0.000000 -0.000000 0.000000 -0.000000 3.724658 -3.580540 -0.671567 5.701733 -1.698175 -81.164716 -0.607672 -19.671911 -0.188853 -2.743082 2.052709 8.590028 10.756253 -0.276896 15.889016 -0.896610 26.389821 -5.961621 0.000003 -0.000003 0.000002 1.188079 0.647559 -5.002737 -1.788681 1.903438 -16.701841 -0.000001 0.000001 -0.000002 -1.911184 4.428366 -9.329997 -0.015745 4.070327 -23.683568 -0.000001 -0.000002 -0.000000 -3.674876 10.866992 -6.817062 2.991180 3.453988 -29.200749 0.000002 -0.000001 0.000001 -4.036343 12.929434 -17.139977 8.436027 2.587697 -31.011887 0.000003 0.000003 0.000002 0.000001 -0.000000 0.000001 -0.152448 3.854349 0.291931 7.610349 7.000170 75.758669 -0.475972 18.376778 0.116772 -2.648201 -1.793314 7.499172 15.799705 -2.839265 -17.241423 -2.060286 -31.143955 7.336444 0.000001 -0.000000 -0.000002 2.370544 -3.627391 8.376533 -2.166787 -2.426074 18.572838 -0.000003 0.000001 0.000002 -1.983231 -5.674184 13.643690 0.273113 -5.046510 26.998843 -0.000001 -0.000000 -0.000002 -4.969288 -10.103485 10.809609 4.017237 -4.047514 33.296916 0.000001 0.000000 0.000007 -6.475551 -11.320962 23.338835 10.707300 -2.607867 34.902980 -0.000001 0.000000 -0.000003 -0.000001 -0.000000 -0.000001 -0.000000 0.000000 0.000000 -0.000000 0.000000 0.000000 -0.000000 0.000000 0.000000 -0.000000 0.000000 0.000000 -0.000000 0.000000 -0.000000 0.000000 0.000000 -0.000000 -0.000000 0.000000 0.000000 -0.000000 0.000000 -0.000000 0.000000 0.000000 -0.000000 0.000000 -0.000001 -0.000000 0.000000 -0.000001 -0.000000 0.000000 -0.000002 -0.000000 
-0.404030 84.553345 -0.446824 -5.766351 40.068803 -0.651334 0.000000 -0.000001 0.000000 -22.190110 9.819445 13.573755 23.180457 3.061327 0.288490 28.665805 -1.982389 -3.313156 -0.000000 0.000001 0.000000 -0.000000 0.000001 0.000001 0.000000 0.000003 -0.000000 -6.934999 6.679762 10.054208 21.632278 -3.380320 -0.480943 15.093632 -3.043968 -2.103638 0.000001 0.000001 -0.000000 0.000001 0.000001 -0.000000 -0.000001 -0.000005 0.000001 3.760514 2.189533 1.777660 -3.699964 1.823054 2.566739 -3.711645 1.866628 2.486913 6.605470 -18.125565 0.115585 1.796022 -17.853640 -1.036668 0.000000 0.000002 -0.000000 0.000000 0.000002 -0.000000 0.000000 0.000002 -0.000000 3.725460 -3.682399 -0.738775 5.746661 -1.622143 -81.047018 -0.785232 -19.692438 -0.233099 -2.744468 1.981065 8.621655 10.756254 -0.276896 15.889014 -0.906732 26.368970 -5.960324 0.000003 -0.000002 0.000003 1.188205 0.647136 -4.979658 -1.788718 1.902858 -16.678817 -0.000001 -0.000001 -0.000004 -1.911301 4.427842 -9.306942 -0.016728 4.070055 -23.660414 0.000001 0.000000 -0.000001 -3.674671 10.866302 -6.794079 2.991312 3.453151 -29.177626 -0.000002 -0.000000 -0.000000 -4.037207 12.928985 -17.116751 8.435543 2.587108 -30.988742 -0.000003 -0.000001 -0.000000 0.000001 0.000000 0.000001 -0.138196 3.765124 0.125489 7.533075 6.981897 75.909520 -0.419482 18.374640 0.085450 -2.645778 -1.830025 7.522398 15.808142 -2.886221 -17.253493 -2.035418 -31.187433 7.341173 0.000003 -0.000002 -0.000003 2.370415 -3.628873 8.429699 -2.166761 -2.427528 18.625899 -0.000003 -0.000001 0.000003 -1.983580 -5.674075 13.782419 0.272795 -5.047815 27.137540 0.000002 0.000002 0.000002 -4.970374 -10.103306 10.948166 4.016896 -4.051062 33.435801 -0.000000 -0.000000 0.000004 -6.472830 -11.323041 23.477773 10.709929 -2.610488 35.042258 -0.000001 -0.000003 0.000001 0.000000 -0.000000 0.000001 -0.000000 -0.000001 -0.000000 -0.000000 -0.000001 -0.000000 -0.000000 -0.000001 -0.000000 -0.000000 -0.000001 -0.000000 -0.000000 -0.000001 -0.000000 0.000000 0.000002 0.000000 -0.000000 -0.000001 -0.000000 -0.000000 -0.000001 -0.000000 0.000000 0.000002 0.000000 -0.000000 0.000001 0.000000 -0.000000 0.000001 0.000000 0.000000 -0.000001 0.000000 
